<svg width="104" height="16" viewBox="0 0 104 16" fill="none" xmlns="http://www.w3.org/2000/svg">
<path d="M7.125 8.7207H2.32031V15H0.533203V0.78125H7.93555V2.32422H2.32031V7.1875H7.125V8.7207ZM10.9395 13.4668H16.5156V15H9.14258V0.78125H10.9395V13.4668ZM24.4805 11.2891H19.6758L18.5723 15H16.7363L21.3164 0.78125H22.8496L27.4395 15H25.6035L24.4805 11.2891ZM20.1445 9.74609H24.0215L22.0781 3.28125L20.1445 9.74609ZM35.4141 2.32422H31.6738V15H29.8867V2.32422H26.1562V0.78125H35.4141V2.32422ZM42.2852 11.2988C42.2852 11.0189 42.2559 10.7715 42.1973 10.5566C42.1452 10.3353 42.041 10.1335 41.8848 9.95117C41.7285 9.76888 41.5039 9.58984 41.2109 9.41406C40.918 9.23177 40.5404 9.04622 40.0781 8.85742C39.5312 8.63607 39.0137 8.40169 38.5254 8.1543C38.0371 7.90039 37.6009 7.60742 37.2168 7.27539C36.8327 6.94336 36.5299 6.55273 36.3086 6.10352C36.0938 5.6543 35.9863 5.13021 35.9863 4.53125C35.9863 3.94531 36.0905 3.41146 36.2988 2.92969C36.5137 2.44141 36.8164 2.02474 37.207 1.67969C37.5977 1.32812 38.0599 1.05794 38.5938 0.869141C39.1341 0.680339 39.7298 0.585938 40.3809 0.585938C41.2988 0.585938 42.0866 0.777995 42.7441 1.16211C43.4017 1.54622 43.9095 2.06706 44.2676 2.72461C44.6257 3.38216 44.8047 4.12435 44.8047 4.95117H42.1973C42.1973 4.52148 42.1322 4.14062 42.002 3.80859C41.8783 3.47005 41.6797 3.20638 41.4062 3.01758C41.1328 2.82878 40.7812 2.73438 40.3516 2.73438C39.9479 2.73438 39.6159 2.81576 39.3555 2.97852C39.0951 3.13477 38.903 3.34961 38.7793 3.62305C38.6556 3.88997 38.5938 4.19596 38.5938 4.54102C38.5938 4.78841 38.6491 5.01302 38.7598 5.21484C38.877 5.41016 39.0365 5.58919 39.2383 5.75195C39.4401 5.91471 39.6842 6.07096 39.9707 6.2207C40.2637 6.36393 40.5892 6.50391 40.9473 6.64062C41.6048 6.88802 42.181 7.16146 42.6758 7.46094C43.1706 7.75391 43.5807 8.08594 43.9062 8.45703C44.2383 8.82161 44.4857 9.23503 44.6484 9.69727C44.8112 10.1595 44.8926 10.6868 44.8926 11.2793C44.8926 11.8652 44.7917 12.3991 44.5898 12.8809C44.388 13.3626 44.0951 13.776 43.7109 14.1211C43.3268 14.4661 42.8613 14.7331 42.3145 14.9219C41.7741 15.1042 41.1719 15.1953 40.5078 15.1953C39.8698 15.1953 39.2611 15.1042 38.6816 14.9219C38.1087 14.7331 37.6009 14.4499 37.1582 14.0723C36.7155 13.6947 36.3672 13.2194 36.1133 12.6465C35.8594 12.0671 35.7324 11.3867 35.7324 10.6055H38.3398C38.3398 11.0417 38.3887 11.4193 38.4863 11.7383C38.584 12.0508 38.7305 12.3047 38.9258 12.5C39.1211 12.6888 39.3555 12.8288 39.6289 12.9199C39.9023 13.0046 40.2116 13.0469 40.5566 13.0469C40.9668 13.0469 41.2988 12.972 41.5527 12.8223C41.8066 12.6725 41.9922 12.4674 42.1094 12.207C42.2266 11.9401 42.2852 11.6374 42.2852 11.2988ZM53.7656 6.62109V8.79883H47.8574V6.62109H53.7656ZM48.541 0.78125V15H45.9238V0.78125H48.541ZM55.7285 0.78125V15H53.1309V0.78125H55.7285ZM62.4336 3.02734L59.1816 15H56.4277L60.9102 0.78125H62.6289L62.4336 3.02734ZM65.002 15L61.75 3.02734L61.5254 0.78125H63.2637L67.7656 15H65.002ZM65.0898 9.70703V11.8848H58.5664V9.70703H65.0898ZM68.2695 0.78125H72.6934C73.6374 0.78125 74.4414 0.94401 75.1055 1.26953C75.7695 1.59505 76.2741 2.07682 76.6191 2.71484C76.9707 3.35286 77.1465 4.13737 77.1465 5.06836C77.1465 5.81055 77.0391 6.45508 76.8242 7.00195C76.6159 7.54232 76.3164 7.99479 75.9258 8.35938C75.5417 8.72396 75.0762 9.00716 74.5293 9.20898L73.7383 9.6582H70.0762L70.0664 7.48047H72.6348C73.0579 7.48047 73.4095 7.38607 73.6895 7.19727C73.9759 7.00846 74.1875 6.74805 74.3242 6.41602C74.4674 6.07747 74.5391 5.6901 74.5391 5.25391C74.5391 4.77865 74.474 4.37174 74.3438 4.0332C74.2201 3.68815 74.0215 3.42448 73.748 3.24219C73.4811 3.0599 73.1296 2.96875 72.6934 2.96875H70.8867V15H68.2695V0.78125ZM74.8125 15L72.1465 8.63281H74.8906L77.6055 14.8633V15H74.8125ZM80.9512 0.78125V15H78.3535V0.78125H80.9512ZM92.3438 0.78125V15H89.7949L85.0488 5.63477V15H82.5488V0.78125H85.0586L89.8438 10.2344V0.78125H92.3438ZM103.316 7.61719V13.3496C103.128 13.5645 102.848 13.8184 102.477 14.1113C102.105 14.3978 101.614 14.6517 101.002 14.873C100.396 15.0879 99.6445 15.1953 98.7461 15.1953C97.9714 15.1953 97.265 15.0716 96.627 14.8242C95.9954 14.5768 95.4518 14.2025 94.9961 13.7012C94.5469 13.1934 94.1986 12.5618 93.9512 11.8066C93.7103 11.0514 93.5898 10.1595 93.5898 9.13086V6.65039C93.5898 5.62826 93.7005 4.73958 93.9219 3.98438C94.1497 3.22266 94.4785 2.58789 94.9082 2.08008C95.3444 1.57227 95.8685 1.19466 96.4805 0.947266C97.0924 0.69987 97.7891 0.576172 98.5703 0.576172C99.6055 0.576172 100.458 0.755208 101.129 1.11328C101.806 1.46484 102.32 1.98568 102.672 2.67578C103.03 3.36589 103.245 4.21224 103.316 5.21484H100.777C100.725 4.61589 100.618 4.13737 100.455 3.7793C100.292 3.42122 100.061 3.16081 99.7617 2.99805C99.4688 2.83529 99.0879 2.75391 98.6191 2.75391C98.2025 2.75391 97.8411 2.82878 97.5352 2.97852C97.2357 3.12174 96.985 3.34961 96.7832 3.66211C96.5879 3.97461 96.4414 4.375 96.3438 4.86328C96.2526 5.35156 96.207 5.94076 96.207 6.63086V9.13086C96.207 9.82096 96.2624 10.4134 96.373 10.9082C96.4902 11.403 96.6595 11.8066 96.8809 12.1191C97.1022 12.4316 97.3789 12.6595 97.7109 12.8027C98.043 12.946 98.4303 13.0176 98.873 13.0176C99.2637 13.0176 99.5762 12.9785 99.8105 12.9004C100.045 12.8223 100.23 12.7344 100.367 12.6367C100.51 12.5326 100.624 12.4544 100.709 12.4023V9.62891H98.541V7.61719H103.316Z" fill="#282828"/>
</svg>
